<svg width="16" height="16" viewBox="0 0 16 16" fill="none" xmlns="http://www.w3.org/2000/svg">
<path fill-rule="evenodd" clip-rule="evenodd" d="M13.0701 9.67291C12.4139 9.18897 11.6917 8.80159 10.9256 8.52257C11.5134 7.96953 11.9306 7.25984 12.1281 6.47731C12.3256 5.69478 12.2951 4.87208 12.0401 4.10635C11.7851 3.34063 11.3163 2.66385 10.6891 2.15595C10.0619 1.64804 9.30245 1.3302 8.50044 1.23997C8.33494 1.21554 8.16772 1.20466 8.00044 1.20746C7.83317 1.20468 7.66595 1.21555 7.50044 1.23997C6.6985 1.33032 5.93915 1.64821 5.31202 2.15613C4.6849 2.66406 4.21618 3.3408 3.96121 4.10648C3.70623 4.87216 3.67565 5.6948 3.87306 6.4773C4.07047 7.25979 4.48763 7.96948 5.07531 8.52257C4.30932 8.80167 3.58725 9.18905 2.93111 9.67291C2.66048 9.87179 2.44044 10.1316 2.28879 10.4312C2.13713 10.7309 2.05811 11.062 2.05811 11.3979C2.05811 11.7337 2.13713 12.0648 2.28879 12.3645C2.44044 12.6641 2.66048 12.9239 2.93111 13.1228C4.39828 14.2086 6.17533 14.7947 8.00061 14.7947C9.82589 14.7947 11.6029 14.2086 13.0701 13.1228C13.3407 12.9239 13.5606 12.6641 13.7123 12.3644C13.8639 12.0648 13.9429 11.7337 13.9429 11.3979C13.9429 11.062 13.8639 10.7309 13.7123 10.4313C13.5606 10.1316 13.3407 9.87184 13.0701 9.67291ZM7.73677 2.92291C7.82389 2.90862 7.91221 2.90296 8.00044 2.90603C8.08879 2.90296 8.17721 2.90861 8.26444 2.92291C8.9154 2.99053 9.51555 3.30546 9.94105 3.80272C10.3665 4.29998 10.5849 4.94162 10.551 5.5952C10.5172 6.24878 10.2337 6.86442 9.75913 7.31506C9.28454 7.76571 8.65506 8.01695 8.00061 8.01695C7.34615 8.01695 6.71667 7.76571 6.24208 7.31506C5.7675 6.86442 5.48402 6.24878 5.45017 5.5952C5.41632 4.94162 5.63468 4.29998 6.06017 3.80272C6.48566 3.30546 7.08582 2.99053 7.73677 2.92291ZM12.0561 11.7582C10.8824 12.6271 9.46073 13.0961 8.00044 13.0961C6.54014 13.0961 5.11845 12.6271 3.94477 11.7582C3.88772 11.7171 3.84126 11.6629 3.80922 11.6003C3.77718 11.5376 3.76048 11.4682 3.76048 11.3979C3.76048 11.3275 3.77718 11.2581 3.80922 11.1955C3.84126 11.1328 3.88772 11.0787 3.94477 11.0375C5.11845 10.1686 6.54014 9.69965 8.00044 9.69965C9.46073 9.69965 10.8824 10.1686 12.0561 11.0375C12.1132 11.0787 12.1596 11.1328 12.1917 11.1955C12.2237 11.2581 12.2405 11.3275 12.2405 11.3979C12.2405 11.4682 12.2237 11.5376 12.1917 11.6003C12.1596 11.6629 12.1132 11.7171 12.0561 11.7582L12.0561 11.7582Z" fill="#229BD8"/>
</svg>
