<svg width="16" height="16" viewBox="0 0 16 16" fill="none" xmlns="http://www.w3.org/2000/svg">
<path fill-rule="evenodd" clip-rule="evenodd" d="M13.0955 2.90454H2.90511C2.68205 2.90453 2.46118 2.94846 2.2551 3.03382C2.04902 3.11917 1.86177 3.24429 1.70404 3.40201C1.54631 3.55973 1.4212 3.74698 1.33584 3.95306C1.25048 4.15914 1.20654 4.38001 1.20654 4.60307V11.3967C1.20654 11.6198 1.25047 11.8407 1.33583 12.0467C1.42119 12.2528 1.54631 12.4401 1.70403 12.5978C1.86176 12.7555 2.04901 12.8806 2.25509 12.966C2.46118 13.0513 2.68205 13.0953 2.90511 13.0953H13.0955C13.3186 13.0952 13.5394 13.0513 13.7455 12.9659C13.9515 12.8806 14.1387 12.7554 14.2964 12.5977C14.4541 12.44 14.5792 12.2527 14.6646 12.0467C14.7499 11.8406 14.7938 11.6198 14.7938 11.3967V4.60307C14.7938 4.15263 14.6149 3.72062 14.2964 3.40209C13.978 3.08355 13.546 2.90458 13.0955 2.90454ZM11.7687 4.60307L8.0002 7.74373L4.23161 4.60307H11.7687ZM13.0955 11.3967H2.90511V5.70854L7.45654 9.50155C7.60921 9.6286 7.80155 9.69816 8.00016 9.69816C8.19878 9.69816 8.39112 9.6286 8.54378 9.50155L13.0955 5.70854V11.3967Z" fill="#229BD8"/>
</svg>
