<svg width="16" height="16" viewBox="0 0 16 16" fill="none" xmlns="http://www.w3.org/2000/svg">
<path d="M10.7715 1.14282H5.22838C2.97559 1.14282 1.14282 2.97559 1.14282 5.22838V10.7715C1.14282 13.0243 2.97559 14.8571 5.22838 14.8571H10.7715C13.0243 14.8571 14.8571 13.0243 14.8571 10.7715V5.22838C14.8571 2.97559 13.0243 1.14282 10.7715 1.14282ZM13.4775 10.7715C13.4775 12.266 12.266 13.4775 10.7715 13.4775H5.22838C3.73397 13.4775 2.52248 12.266 2.52248 10.7715V5.22838C2.52248 3.73394 3.73397 2.52248 5.22838 2.52248H10.7715C12.266 2.52248 13.4775 3.73394 13.4775 5.22838V10.7715Z" fill="url(#paint0_linear)"/>
<path d="M7.99988 4.45288C6.04406 4.45288 4.45288 6.04406 4.45288 7.99986C4.45288 9.95565 6.04406 11.5469 7.99988 11.5469C9.9557 11.5469 11.5469 9.95568 11.5469 7.99986C11.5469 6.04404 9.9557 4.45288 7.99988 4.45288ZM7.99988 10.1672C6.80288 10.1672 5.83254 9.19688 5.83254 7.99988C5.83254 6.80288 6.80291 5.83254 7.99988 5.83254C9.19688 5.83254 10.1672 6.80288 10.1672 7.99988C10.1672 9.19686 9.19686 10.1672 7.99988 10.1672Z" fill="url(#paint1_linear)"/>
<path d="M11.5538 5.32951C12.0232 5.32951 12.4037 4.94898 12.4037 4.47957C12.4037 4.01017 12.0232 3.62964 11.5538 3.62964C11.0844 3.62964 10.7039 4.01017 10.7039 4.47957C10.7039 4.94898 11.0844 5.32951 11.5538 5.32951Z" fill="url(#paint2_linear)"/>
<defs>
<linearGradient id="paint0_linear" x1="7.99997" y1="14.8172" x2="7.99997" y2="1.24934" gradientUnits="userSpaceOnUse">
<stop stop-color="#E09B3D"/>
<stop offset="0.3" stop-color="#C74C4D"/>
<stop offset="0.6" stop-color="#C21975"/>
<stop offset="1" stop-color="#7024C4"/>
</linearGradient>
<linearGradient id="paint1_linear" x1="7.99988" y1="14.8171" x2="7.99988" y2="1.24926" gradientUnits="userSpaceOnUse">
<stop stop-color="#E09B3D"/>
<stop offset="0.3" stop-color="#C74C4D"/>
<stop offset="0.6" stop-color="#C21975"/>
<stop offset="1" stop-color="#7024C4"/>
</linearGradient>
<linearGradient id="paint2_linear" x1="11.5538" y1="14.8172" x2="11.5538" y2="1.24932" gradientUnits="userSpaceOnUse">
<stop stop-color="#E09B3D"/>
<stop offset="0.3" stop-color="#C74C4D"/>
<stop offset="0.6" stop-color="#C21975"/>
<stop offset="1" stop-color="#7024C4"/>
</linearGradient>
</defs>
</svg>
