<svg width="16" height="16" viewBox="0 0 16 16" fill="none" xmlns="http://www.w3.org/2000/svg">
<path d="M14.8571 3.89068C14.3471 4.11439 13.8037 4.26268 13.2371 4.33468C13.82 3.98668 14.2648 3.43982 14.474 2.78068C13.9305 3.10468 13.3305 3.33353 12.6911 3.46125C12.1751 2.91182 11.4397 2.57153 10.6374 2.57153C9.08082 2.57153 7.82768 3.83496 7.82768 5.38382C7.82768 5.60668 7.84654 5.82096 7.89282 6.02496C5.55539 5.91096 3.48711 4.79068 2.09768 3.0841C1.85511 3.50496 1.71282 3.98668 1.71282 4.50525C1.71282 5.47896 2.21425 6.3421 2.96168 6.84182C2.50997 6.83325 2.06682 6.7021 1.69139 6.49553C1.69139 6.5041 1.69139 6.51525 1.69139 6.52639C1.69139 7.89268 2.66596 9.02753 3.94396 9.28896C3.71511 9.35153 3.46568 9.38153 3.20682 9.38153C3.02682 9.38153 2.84511 9.37125 2.67454 9.33353C3.03882 10.447 4.07254 11.2655 5.30168 11.2921C4.34511 12.0404 3.13054 12.4912 1.81568 12.4912C1.58511 12.4912 1.36397 12.481 1.14282 12.4527C2.38825 13.2558 3.86425 13.7144 5.45597 13.7144C10.6297 13.7144 13.4583 9.42868 13.4583 5.71382C13.4583 5.58953 13.454 5.46953 13.448 5.35039C14.006 4.95439 14.4748 4.45982 14.8571 3.89068Z" fill="#03A9F4"/>
</svg>
