<svg width="16" height="16" viewBox="0 0 16 16" fill="none" xmlns="http://www.w3.org/2000/svg">
<path d="M14.5745 4.64533C14.4164 4.05782 13.9532 3.59472 13.3658 3.43652C12.2926 3.14282 7.99983 3.14282 7.99983 3.14282C7.99983 3.14282 3.70713 3.14282 2.63392 3.42533C2.05782 3.58342 1.58332 4.05793 1.42522 4.64533C1.14282 5.71843 1.14282 7.94393 1.14282 7.94393C1.14282 7.94393 1.14282 10.1806 1.42522 11.2425C1.58342 11.8299 2.04652 12.2931 2.63403 12.4513C3.71843 12.745 7.99994 12.745 7.99994 12.745C7.99994 12.745 12.2926 12.745 13.3658 12.4625C13.9534 12.3044 14.4164 11.8412 14.5747 11.2538C14.8571 10.1806 14.8571 7.95523 14.8571 7.95523C14.8571 7.95523 14.8684 5.71843 14.5745 4.64533Z" fill="#FF0000"/>
<path d="M6.63293 9.99996L10.2027 7.94395L6.63293 5.88794V9.99996Z" fill="white"/>
</svg>
