<svg width="14" height="20" viewBox="0 0 14 20" fill="none" xmlns="http://www.w3.org/2000/svg">
<path d="M2 17.5C0.9 17.5 0 18.4 0 19.5H14C14 18.4 13.1 17.5 12 17.5H8V15.5H11C12.1 15.5 13 14.6 13 13.5H5C3.34 13.5 2 12.16 2 10.5C2 9.41 2.59 8.46 3.46 7.94C3.17 7.53 3 7.04 3 6.5C3 6.29 3.04 6.08 3.09 5.88C1.28 6.63 0 8.42 0 10.5C0 13.26 2.24 15.5 5 15.5V17.5H2Z" fill="#141414"/>
<path d="M5.56 4.01C6.91 4.04 8 5.14 8 6.5C8 7.25 7.67 7.91 7.15 8.37L7.74 9.99L8.68 9.65L9.02 10.59L10.9 9.91L10.56 8.97L11.5 8.63L8.76 1.1L7.82 1.44L7.48 0.5L5.6 1.18L5.94 2.12L5 2.47L5.56 4.01Z" fill="#141414"/>
<path d="M5.5 8C6.32843 8 7 7.32843 7 6.5C7 5.67157 6.32843 5 5.5 5C4.67157 5 4 5.67157 4 6.5C4 7.32843 4.67157 8 5.5 8Z" fill="#141414"/>
</svg>
