<svg width="24" height="24" viewBox="0 0 24 24" fill="none" xmlns="http://www.w3.org/2000/svg">
<path d="M11 18.0001H13V16.0001H11V18.0001ZM12 2.00006C6.48 2.00006 2 6.48006 2 12.0001C2 17.5201 6.48 22.0001 12 22.0001C17.52 22.0001 22 17.5201 22 12.0001C22 6.48006 17.52 2.00006 12 2.00006ZM12 20.0001C7.59 20.0001 4 16.4101 4 12.0001C4 7.59006 7.59 4.00006 12 4.00006C16.41 4.00006 20 7.59006 20 12.0001C20 16.4101 16.41 20.0001 12 20.0001ZM12 6.00006C9.79 6.00006 8 7.79006 8 10.0001H10C10 8.90006 10.9 8.00006 12 8.00006C13.1 8.00006 14 8.90006 14 10.0001C14 12.0001 11 11.7501 11 15.0001H13C13 12.7501 16 12.5001 16 10.0001C16 7.79006 14.21 6.00006 12 6.00006Z" fill="#141414"/>
</svg>
